<svg width="200" height="48" viewBox="0 0 200 48" fill="none" xmlns="http://www.w3.org/2000/svg">
  <defs>
    <linearGradient id="logo-icon-bg" x1="0%" y1="0%" x2="100%" y2="100%">
      <stop offset="0%" style="stop-color:#6366f1"/>
      <stop offset="50%" style="stop-color:#7c3aed"/>
      <stop offset="100%" style="stop-color:#5b21b6"/>
    </linearGradient>
    <linearGradient id="logo-pay" x1="0%" y1="0%" x2="100%" y2="0%">
      <stop offset="0%" style="stop-color:#4f46e5"/>
      <stop offset="100%" style="stop-color:#7c3aed"/>
    </linearGradient>
  </defs>
  <!-- Icon: rounded square + S -->
  <rect width="48" height="48" rx="12" fill="url(#logo-icon-bg)"/>
  <path
    d="M11 9 C19 9 25 12 25 16 C25 20 21 22 17 22 C13 22 11 24 11 27 C11 31 17 33 23 33 C29 33 33 29 33 25 C33 21 29 19 25 19 C21 19 19 17 19 15 C19 11 23 9 11 9"
    stroke="white"
    stroke-width="2.2"
    stroke-linecap="round"
    stroke-linejoin="round"
    fill="none"
    transform="translate(5,6)"
  />
  <!-- Wordmark: SwiftPay -->
  <text x="60" y="32" font-family="'Plus Jakarta Sans', system-ui, sans-serif" font-weight="800" font-size="26" letter-spacing="-0.02em" fill="#0f172a">SwiftPay</text>
</svg>
